# xmcd
# 
# Track frame offsets:
#     150
#     15338
#     37139
#     63998
#     82072
# 
# Disc length: 1359
# 
# Revision: 0
# Processed by: cddbd v1.5.2PL0 Copyright (c) Steve Scherf et al.
# Submitted via: fre:ac v1.0.17
# 
DISCID=38054d05
DTITLE=Brand New Fire - Brand New Fire
DYEAR=0
DGENRE=Rock
TTITLE0=Facing the Devil
TTITLE1=By my side
TTITLE2=Midnight
TTITLE3=Not on more time
TTITLE4=Desire
EXTD=
EXTT0=
EXTT1=
EXTT2=
EXTT3=
EXTT4=
PLAYORDER=
